# xmcd
#
# Track frame offsets: 
#        182
#        14130
#        26210
#        39477
#        54462
#        67975
#        79097
#        93397
#        109162
#        132890
#        151245
#        172567
#        187972
#        204097
#        222622
#        241445
#
# Disc length: 3418 seconds
#
# Revision: 4
# Processed by: cddbd v1.5.2PL0 Copyright (c) Steve Scherf et al.
# Submitted via: ExactAudioCopyFreeDBPlugin 1.0
#
DISCID=d20d5810
DTITLE=The Meters - The Very Best of The Meters
DYEAR=1997
DGENRE=Soul
TTITLE0=Cissy Strut
TTITLE1=Live Wire
TTITLE2=Sophisticated Cissy
TTITLE3=Look-Ka Py Py
TTITLE4=Pungee
TTITLE5=Tippi-Toes
TTITLE6=Soul Island
TTITLE7=Cabbage Alley
TTITLE8=People Say
TTITLE9=Hey Pocky A-Way
TTITLE10=Just Kissed My Baby
TTITLE11=Jungle Man
TTITLE12=Out in the Country
TTITLE13=Fire on the Bayou
TTITLE14=They All Asked for You
TTITLE15=Trick Bag
EXTD=
EXTT0=
EXTT1=
EXTT2=
EXTT3=
EXTT4=
EXTT5=
EXTT6=
EXTT7=
EXTT8=
EXTT9=
EXTT10=
EXTT11=
EXTT12=
EXTT13=
EXTT14=
EXTT15=
PLAYORDER=
